<?xml version="1.0" encoding="UTF-8" standalone="no"?>
<!-- Created with Inkscape (http://www.inkscape.org/) -->

<svg
   xmlns:dc="http://purl.org/dc/elements/1.1/"
   xmlns:cc="http://creativecommons.org/ns#"
   xmlns:rdf="http://www.w3.org/1999/02/22-rdf-syntax-ns#"
   xmlns:svg="http://www.w3.org/2000/svg"
   xmlns="http://www.w3.org/2000/svg"
   xmlns:sodipodi="http://sodipodi.sourceforge.net/DTD/sodipodi-0.dtd"
   xmlns:inkscape="http://www.inkscape.org/namespaces/inkscape"
   width="463.77811"
   height="590.74988"
   id="svg2"
   version="1.1"
   inkscape:version="0.48.2 r9819"
   sodipodi:docname="New document 1">
  <defs
     id="defs4" />
  <sodipodi:namedview
     id="base"
     pagecolor="#ffffff"
     bordercolor="#666666"
     borderopacity="1.0"
     inkscape:pageopacity="0.0"
     inkscape:pageshadow="2"
     inkscape:zoom="0.87518142"
     inkscape:cx="201.60383"
     inkscape:cy="278.53842"
     inkscape:document-units="px"
     inkscape:current-layer="layer1"
     showgrid="false"
     fit-margin-top="0"
     fit-margin-left="0"
     fit-margin-right="0"
     fit-margin-bottom="0"
     inkscape:window-width="1131"
     inkscape:window-height="821"
     inkscape:window-x="0"
     inkscape:window-y="0"
     inkscape:window-maximized="0" />
  <metadata
     id="metadata7">
    <rdf:RDF>
      <cc:Work
         rdf:about="">
        <dc:format>image/svg+xml</dc:format>
        <dc:type
           rdf:resource="http://purl.org/dc/dcmitype/StillImage" />
        <dc:title></dc:title>
      </cc:Work>
    </rdf:RDF>
  </metadata>
  <g
     inkscape:label="Layer 1"
     inkscape:groupmode="layer"
     id="layer1"
     transform="translate(-149.82474,-103.00787)">
    <path
       style="fill:#000000"
       d="m 570.13021,692.17431 c -14.06322,-5.01864 -23.13987,-18.93066 -21.95791,-33.65542 0.94092,-11.72179 7.97494,-22.01711 18.61144,-27.24055 4.821,-2.36753 6.87776,-2.77047 14.14151,-2.77047 7.26375,0 9.32051,0.40294 14.14151,2.77047 6.5888,3.23567 13.14512,9.94024 16.18782,16.55386 3.355,7.29227 3.0798,19.82446 -0.5998,27.31718 -3.26196,6.64233 -10.0082,13.2076 -16.55386,16.10979 -6.62437,2.93709 -17.17601,3.33992 -23.97071,0.91514 z m -374.46994,-13.9309 -12.73613,-12.76445 12.265,-12.23555 12.26499,-12.23554 113.99945,0 113.99946,0 13.23722,13.26452 13.23722,13.26452 -11.76614,11.73548 -11.76613,11.73548 -114.99941,0 -114.99941,0 -12.73612,-12.76446 z m 263.08445,-32.98087 -12.66099,-12.75467 8.98602,-100.5 8.98601,-100.5 13.66988,-13.74853 13.66989,-13.74854 10.76486,10.73148 10.76486,10.73148 -0.02,5.01706 c -0.011,2.75938 -4.02854,49.75729 -8.92787,104.43981 l -8.90788,99.42277 -11.83191,11.8319 -11.8319,11.83191 -12.66099,-12.75467 z m -297.12991,-1.06461 -11.79007,-11.82087 8.6751,-97.9346 8.6751,-97.93459 13.61029,-13.74853 13.6103,-13.74854 10.76486,10.73148 c 9.61101,9.58121 10.76491,11.10846 10.76537,14.24854 2.8e-4,1.93438 -3.85995,46.94205 -8.57829,100.01705 l -8.57879,96.5 -12.6819,12.75546 -12.6819,12.75547 -11.79007,-11.82087 z m 53.54525,-233.45458 -11.23256,-11.26452 13.76182,-13.73548 13.76182,-13.73548 114.00337,0 114.00336,0 11.23257,11.26452 11.23256,11.26452 -13.76182,13.73548 -13.76182,13.73548 -114.00337,0 -114.00336,0 -11.23257,-11.26452 z m -30.99588,-30.99573 c -9.03907,-9.06994 -10.24046,-10.68205 -10.25196,-13.75682 -0.007,-1.91561 3.85932,-47.13293 8.5922,-100.48293 l 8.60524,-97 14.1428,-14.24793 14.14279,-14.24793 10.265,10.23006 c 9.61874,9.58601 10.26503,10.48302 10.26551,14.24793 2.8e-4,2.20983 -3.85987,47.44287 -8.57812,100.51787 l -8.57864,96.5 -14.18294,14.25683 -14.18294,14.25682 -10.23894,-10.2739 z m 296.99587,-5.00414 c -9.91465,-9.94851 -10.2353,-10.40999 -10.25086,-14.75268 -0.009,-2.46561 3.85368,-48.13293 8.58338,-101.48293 l 8.59943,-97 13.41612,-13.49495 13.41612,-13.49495 11.18388,11.18388 11.18387,11.18387 -8.89936,100.03962 -8.89936,100.03961 -14.04921,14.02414 -14.0492,14.02414 -10.23481,-10.26975 z M 240.16006,141.74335 228.9275,130.47883 l 13.76182,-13.73548 13.76182,-13.73548 113.50411,0 113.50411,0 10.96772,11.00184 10.96772,11.00183 -13.97138,13.99816 -13.97138,13.99817 -113.0297,0 -113.02971,0 -11.23257,-11.26452 z"
       id="path3074"
       inkscape:connector-curvature="0" />
  </g>
</svg>
