<?xml version="1.0" encoding="UTF-8" standalone="no"?>
<!-- Created with Inkscape (http://www.inkscape.org/) -->

<svg
   xmlns:dc="http://purl.org/dc/elements/1.1/"
   xmlns:cc="http://creativecommons.org/ns#"
   xmlns:rdf="http://www.w3.org/1999/02/22-rdf-syntax-ns#"
   xmlns:svg="http://www.w3.org/2000/svg"
   xmlns="http://www.w3.org/2000/svg"
   xmlns:sodipodi="http://sodipodi.sourceforge.net/DTD/sodipodi-0.dtd"
   xmlns:inkscape="http://www.inkscape.org/namespaces/inkscape"
   width="463.77811"
   height="590.74988"
   id="svg2"
   version="1.1"
   inkscape:version="0.91 r13725"
   sodipodi:docname="seven-segments-display-layout-abs.svg">
  <defs
     id="defs4" />
  <sodipodi:namedview
     id="base"
     pagecolor="#ffffff"
     bordercolor="#666666"
     borderopacity="1.0"
     inkscape:pageopacity="0.0"
     inkscape:pageshadow="2"
     inkscape:zoom="0.87518142"
     inkscape:cx="246.73733"
     inkscape:cy="278.53842"
     inkscape:document-units="px"
     inkscape:current-layer="layer1"
     showgrid="false"
     fit-margin-top="0"
     fit-margin-left="0"
     fit-margin-right="0"
     fit-margin-bottom="0"
     inkscape:window-width="1615"
     inkscape:window-height="1026"
     inkscape:window-x="1433"
     inkscape:window-y="24"
     inkscape:window-maximized="1" />
  <metadata
     id="metadata7">
    <rdf:RDF>
      <cc:Work
         rdf:about="">
        <dc:format>image/svg+xml</dc:format>
        <dc:type
           rdf:resource="http://purl.org/dc/dcmitype/StillImage" />
        <dc:title></dc:title>
      </cc:Work>
    </rdf:RDF>
  </metadata>
  <g
     inkscape:label="Layer 1"
     inkscape:groupmode="layer"
     id="layer1"
     transform="translate(-149.82474,-103.00787)">
    <path
       style="fill:#000000"
       d="M 570.13021,692.17431 C 556.06699,687.15567 546.99034,673.24365 548.1723,658.51889 549.11322,646.7971 556.14724,636.50178 566.78374,631.27834 571.60474,628.91081 573.6615,628.50787 580.92525,628.50787 588.189,628.50787 590.24576,628.91081 595.06676,631.27834 601.65556,634.51401 608.21188,641.21858 611.25458,647.8322 614.60958,655.12447 614.33438,667.65666 610.65478,675.14938 607.39282,681.79171 600.64658,688.35698 594.10092,691.25917 587.47655,694.19626 576.92491,694.59909 570.13021,692.17431 Z M 195.66027,678.24341 182.92414,665.47896 195.18914,653.24341 207.45413,641.00787 321.45358,641.00787 435.45304,641.00787 448.69026,654.27239 461.92748,667.53691 450.16134,679.27239 438.39521,691.00787 323.3958,691.00787 208.39639,691.00787 195.66027,678.24341 Z M 458.74472,645.26254 446.08373,632.50787 455.06975,532.00787 464.05576,431.50787 477.72564,417.75934 491.39553,404.0108 502.16039,414.74228 512.92525,425.47376 512.90525,430.49082 C 512.89425,433.2502 508.87671,480.24811 503.97738,534.93063 L 495.0695,634.3534 483.23759,646.1853 471.40569,658.01721 458.7447,645.26254 Z M 161.61481,644.19793 149.82474,632.37706 158.49984,534.44246 167.17494,436.50787 180.78523,422.75934 194.39553,409.0108 205.16039,419.74228 C 214.7714,429.32349 215.9253,430.85074 215.92576,433.99082 215.92604,435.9252 212.06581,480.93287 207.34747,534.00787 L 198.76868,630.50787 186.08678,643.26333 173.40488,656.0188 161.61481,644.19793 Z M 215.16006,410.74335 203.9275,399.47883 217.68932,385.74335 231.45114,372.00787 345.45451,372.00787 459.45787,372.00787 470.69044,383.27239 481.923,394.53691 468.16118,408.27239 454.39936,422.00787 340.39599,422.00787 226.39263,422.00787 215.16006,410.74335 Z M 184.16418,379.74762 C 175.12511,370.67768 173.92372,369.06557 173.91222,365.9908 173.90522,364.07519 177.77154,318.85787 182.50442,265.50787 L 191.10966,168.50787 205.25246,154.25994 219.39525,140.01201 229.66025,150.24207 C 239.27899,159.82808 239.92528,160.72509 239.92576,164.49 239.92604,166.69983 236.06589,211.93287 231.34764,265.00787 L 222.769,361.50787 208.58606,375.7647 194.40312,390.02152 184.16418,379.74762 Z M 481.16005,374.74348 C 471.2454,364.79497 470.92475,364.33349 470.90919,359.9908 470.90019,357.52519 474.76287,311.85787 479.49257,258.50787 L 488.092,161.50787 501.50812,148.01292 514.92424,134.51797 526.10812,145.70185 537.29199,156.88572 528.39263,256.92534 519.49327,356.96495 505.44406,370.98909 491.39486,385.01323 481.16005,374.74348 Z M 240.16006,141.74335 228.9275,130.47883 242.68932,116.74335 256.45114,103.00787 369.95525,103.00787 483.45936,103.00787 494.42708,114.00971 505.3948,125.01154 491.42342,139.0097 477.45204,153.00787 364.42234,153.00787 251.39263,153.00787 240.16006,141.74335 Z"
       id="path3074"
       inkscape:connector-curvature="0" />
  </g>
</svg>
